HIERARCHY
ROOT Hips
{
    OFFSET 0.000000 97.120003 0.000000
    CHANNELS 6 Xposition Yposition Zposition Yrotation Xrotation Zrotation
    JOINT RightUpLeg
    {
        OFFSET -11.000000 -0.000000 0.000000
        CHANNELS 3 Yrotation Xrotation Zrotation
        JOINT RightLeg
        {
            OFFSET 0.000000 -45.062000 0.000000
            CHANNELS 3 Yrotation Xrotation Zrotation
            JOINT RightFoot
            {
                OFFSET 0.000000 -42.057999 0.000000
                CHANNELS 3 Yrotation Xrotation Zrotation
                End Site
                {
                    OFFSET 0.000000 -10.000000 15.120000
                }
            }
        }
    }
    JOINT LeftUpLeg
    {
        OFFSET 11.000000 -0.000000 0.000000
        CHANNELS 3 Yrotation Xrotation Zrotation
        JOINT LeftLeg
        {
            OFFSET 0.000000 -45.062000 0.000000
            CHANNELS 3 Yrotation Xrotation Zrotation
            JOINT LeftFoot
            {
                OFFSET 0.000000 -42.057999 0.000000
                CHANNELS 3 Yrotation Xrotation Zrotation
                End Site
                {
                    OFFSET 0.000000 -10.000000 15.120000
                }
            }
        }
    }
    JOINT Spine
    {
        OFFSET 0.000000 8.120000 0.000000
        CHANNELS 3 Yrotation Xrotation Zrotation
        JOINT Spine1
        {
            OFFSET 0.000000 17.980000 0.000000
            CHANNELS 3 Yrotation Xrotation Zrotation
            JOINT Spine2
            {
                OFFSET 0.000000 12.760000 0.000000
                CHANNELS 3 Yrotation Xrotation Zrotation
                JOINT Neck
                {
                    OFFSET 0.000000 19.139999 0.000000
                    CHANNELS 3 Yrotation Xrotation Zrotation
                    JOINT Neck1
                    {
                        OFFSET 0.000000 4.250000 0.000000
                        CHANNELS 3 Yrotation Xrotation Zrotation
                        JOINT Head
                        {
                            OFFSET 0.000000 4.250000 0.000000
                            CHANNELS 3 Yrotation Xrotation Zrotation
                            End Site
                            {
                                OFFSET 0.000000 19.120001 0.000000
                            }
                        }
                    }
                }
                JOINT RightShoulder
                {
                    OFFSET -2.900000 13.340000 0.000000
                    CHANNELS 3 Yrotation Xrotation Zrotation
                    JOINT RightArm
                    {
                        OFFSET -16.100000 0.000000 0.000000
                        CHANNELS 3 Yrotation Xrotation Zrotation
                        JOINT RightForeArm
                        {
                            OFFSET -28.000000 0.000000 0.000000
                            CHANNELS 3 Yrotation Xrotation Zrotation
                            JOINT RightHand
                            {
                                OFFSET -26.000000 0.000000 0.000000
                                CHANNELS 3 Yrotation Xrotation Zrotation
                                JOINT RightHandThumb1
                                {
                                    OFFSET -1.937000 -0.484000 2.518000
                                    CHANNELS 3 Yrotation Xrotation Zrotation
                                    JOINT RightHandThumb2
                                    {
                                        OFFSET -3.872000 0.000000 0.000000
                                        CHANNELS 3 Yrotation Xrotation Zrotation
                                        JOINT RightHandThumb3
                                        {
                                            OFFSET -2.690000 0.000000 0.000000
                                            CHANNELS 3 Yrotation Xrotation Zrotation
                                            End Site
                                            {
                                                OFFSET -2.537000 0.000000 0.000000
                                            }
                                        }
                                    }
                                }
                                JOINT RightInHandIndex
                                {
                                    OFFSET -3.389000 0.535000 2.080000
                                    CHANNELS 3 Yrotation Xrotation Zrotation
                                    JOINT RightHandIndex1
                                    {
                                        OFFSET -5.485000 -0.096000 1.051000
                                        CHANNELS 3 Yrotation Xrotation Zrotation
                                        JOINT RightHandIndex2
                                        {
                                            OFFSET -3.806000 0.000000 0.000000
                                            CHANNELS 3 Yrotation Xrotation Zrotation
                                            JOINT RightHandIndex3
                                            {
                                                OFFSET -2.158000 0.000000 0.000000
                                                CHANNELS 3 Yrotation Xrotation Zrotation
                                                End Site
                                                {
                                                    OFFSET -1.898000 0.000000 0.000000
                                                }
                                            }
                                        }
                                    }
                                }
                                JOINT RightInHandMiddle
                                {
                                    OFFSET -3.556000 0.544000 0.796000
                                    CHANNELS 3 Yrotation Xrotation Zrotation
                                    JOINT RightHandMiddle1
                                    {
                                        OFFSET -5.441000 -0.088000 0.330000
                                        CHANNELS 3 Yrotation Xrotation Zrotation
                                        JOINT RightHandMiddle2
                                        {
                                            OFFSET -4.153000 0.000000 0.000000
                                            CHANNELS 3 Yrotation Xrotation Zrotation
                                            JOINT RightHandMiddle3
                                            {
                                                OFFSET -2.603000 0.000000 0.000000
                                                CHANNELS 3 Yrotation Xrotation Zrotation
                                                End Site
                                                {
                                                    OFFSET -2.076000 0.000000 0.000000
                                                }
                                            }
                                        }
                                    }
                                }
                                JOINT RightInHandRing
                                {
                                    OFFSET -3.539000 0.566000 -0.136000
                                    CHANNELS 3 Yrotation Xrotation Zrotation
                                    JOINT RightHandRing1
                                    {
                                        OFFSET -4.873000 -0.023000 -0.504000
                                        CHANNELS 3 Yrotation Xrotation Zrotation
                                        JOINT RightHandRing2
                                        {
                                            OFFSET -3.619000 0.000000 0.000000
                                            CHANNELS 3 Yrotation Xrotation Zrotation
                                            JOINT RightHandRing3
                                            {
                                                OFFSET -2.511000 0.000000 0.000000
                                                CHANNELS 3 Yrotation Xrotation Zrotation
                                                End Site
                                                {
                                                    OFFSET -1.952000 0.000000 0.000000
                                                }
                                            }
                                        }
                                    }
                                }
                                JOINT RightInHandPinky
                                {
                                    OFFSET -3.324000 0.494000 -1.264000
                                    CHANNELS 3 Yrotation Xrotation Zrotation
                                    JOINT RightHandPinky1
                                    {
                                        OFFSET -4.354000 -0.023000 -1.147000
                                        CHANNELS 3 Yrotation Xrotation Zrotation
                                        JOINT RightHandPinky2
                                        {
                                            OFFSET -2.898000 0.000000 0.000000
                                            CHANNELS 3 Yrotation Xrotation Zrotation
                                            JOINT RightHandPinky3
                                            {
                                                OFFSET -1.831000 0.000000 0.000000
                                                CHANNELS 3 Yrotation Xrotation Zrotation
                                                End Site
                                                {
                                                    OFFSET -1.730000 0.000000 0.000000
                                                }
                                            }
                                        }
                                    }
                                }
                            }
                        }
                    }
                }
                JOINT LeftShoulder
                {
                    OFFSET 2.900000 13.340000 0.000000
                    CHANNELS 3 Yrotation Xrotation Zrotation
                    JOINT LeftArm
                    {
                        OFFSET 16.100000 0.000000 0.000000
                        CHANNELS 3 Yrotation Xrotation Zrotation
                        JOINT LeftForeArm
                        {
                            OFFSET 28.000000 0.000000 0.000000
                            CHANNELS 3 Yrotation Xrotation Zrotation
                            JOINT LeftHand
                            {
                                OFFSET 26.000000 0.000000 0.000000
                                CHANNELS 3 Yrotation Xrotation Zrotation
                                JOINT LeftHandThumb1
                                {
                                    OFFSET 1.937000 -0.484000 2.518000
                                    CHANNELS 3 Yrotation Xrotation Zrotation
                                    JOINT LeftHandThumb2
                                    {
                                        OFFSET 3.872000 0.000000 0.000000
                                        CHANNELS 3 Yrotation Xrotation Zrotation
                                        JOINT LeftHandThumb3
                                        {
                                            OFFSET 2.690000 0.000000 0.000000
                                            CHANNELS 3 Yrotation Xrotation Zrotation
                                            End Site
                                            {
                                                OFFSET 2.537000 0.000000 0.000000
                                            }
                                        }
                                    }
                                }
                                JOINT LeftInHandIndex
                                {
                                    OFFSET 3.389000 0.535000 2.080000
                                    CHANNELS 3 Yrotation Xrotation Zrotation
                                    JOINT LeftHandIndex1
                                    {
                                        OFFSET 5.485000 -0.096000 1.051000
                                        CHANNELS 3 Yrotation Xrotation Zrotation
                                        JOINT LeftHandIndex2
                                        {
                                            OFFSET 3.806000 0.000000 0.000000
                                            CHANNELS 3 Yrotation Xrotation Zrotation
                                            JOINT LeftHandIndex3
                                            {
                                                OFFSET 2.158000 0.000000 0.000000
                                                CHANNELS 3 Yrotation Xrotation Zrotation
                                                End Site
                                                {
                                                    OFFSET 1.898000 0.000000 0.000000
                                                }
                                            }
                                        }
                                    }
                                }
                                JOINT LeftInHandMiddle
                                {
                                    OFFSET 3.556000 0.544000 0.796000
                                    CHANNELS 3 Yrotation Xrotation Zrotation
                                    JOINT LeftHandMiddle1
                                    {
                                        OFFSET 5.441000 -0.088000 0.330000
                                        CHANNELS 3 Yrotation Xrotation Zrotation
                                        JOINT LeftHandMiddle2
                                        {
                                            OFFSET 4.153000 0.000000 0.000000
                                            CHANNELS 3 Yrotation Xrotation Zrotation
                                            JOINT LeftHandMiddle3
                                            {
                                                OFFSET 2.603000 0.000000 0.000000
                                                CHANNELS 3 Yrotation Xrotation Zrotation
                                                End Site
                                                {
                                                    OFFSET 2.076000 0.000000 0.000000
                                                }
                                            }
                                        }
                                    }
                                }
                                JOINT LeftInHandRing
                                {
                                    OFFSET 3.539000 0.566000 -0.136000
                                    CHANNELS 3 Yrotation Xrotation Zrotation
                                    JOINT LeftHandRing1
                                    {
                                        OFFSET 4.873000 -0.023000 -0.504000
                                        CHANNELS 3 Yrotation Xrotation Zrotation
                                        JOINT LeftHandRing2
                                        {
                                            OFFSET 3.619000 0.000000 0.000000
                                            CHANNELS 3 Yrotation Xrotation Zrotation
                                            JOINT LeftHandRing3
                                            {
                                                OFFSET 2.511000 0.000000 0.000000
                                                CHANNELS 3 Yrotation Xrotation Zrotation
                                                End Site
                                                {
                                                    OFFSET 1.952000 0.000000 0.000000
                                                }
                                            }
                                        }
                                    }
                                }
                                JOINT LeftInHandPinky
                                {
                                    OFFSET 3.324000 0.494000 -1.264000
                                    CHANNELS 3 Yrotation Xrotation Zrotation
                                    JOINT LeftHandPinky1
                                    {
                                        OFFSET 4.354000 -0.023000 -1.147000
                                        CHANNELS 3 Yrotation Xrotation Zrotation
                                        JOINT LeftHandPinky2
                                        {
                                            OFFSET 2.898000 0.000000 0.000000
                                            CHANNELS 3 Yrotation Xrotation Zrotation
                                            JOINT LeftHandPinky3
                                            {
                                                OFFSET 1.831000 0.000000 0.000000
                                                CHANNELS 3 Yrotation Xrotation Zrotation
                                                End Site
                                                {
                                                    OFFSET 1.730000 0.000000 0.000000
                                                }
                                            }
                                        }
                                    }
                                }
                            }
                        }
                    }
                }
            }
        }
    }
}
MOTION
Frames: 4
Frame Time: 0.010000
-9.525444 96.430557 -11.191066 4.849328 6.304085 0.413945 169.011032 -177.497665 174.027039 0.383383 -1.838889 -2.575547 8.318479 -2.398522 6.579431 9.553663 -1.135272 3.289160 2.822161 -1.110020 2.063926 176.207642 -176.032928 173.739456 179.733887 -179.076004 -177.615158 179.754562 -179.081696 179.622726 178.843887 -179.319626 179.527588 180.000000 -179.673538 179.608734 0.000000 -0.380877 -0.405237 179.178711 -179.715591 179.766464 4.857195 -7.021612 0.711790 7.859036 9.058407 86.365746 9.613743 -5.253520 1.825760 1.258682 -0.194189 -10.721402 47.778851 32.097076 -0.164703 179.999985 -179.999985 -172.736557 180.000000 -179.999985 -175.162552 0.000000 -0.000000 0.000000 15.000000 -0.000001 17.019495 180.000000 -180.000000 -166.074951 180.000000 -180.000000 -170.252472 0.000000 -0.000000 0.000000 180.000000 180.000000 -166.342911 0.000001 -0.000000 13.657104 180.000000 -180.000000 -170.904358 0.000000 -0.000000 0.000000 170.000000 179.999985 -164.980057 0.000000 0.000000 15.019929 0.000000 0.000000 10.003277 0.000000 -0.000000 0.000000 160.000015 -180.000000 -157.684052 0.000000 0.000002 33.473919 0.000000 -0.000000 22.293621 177.164703 -173.699387 173.809036 158.185776 169.781540 95.731621 171.182953 -163.051529 177.322311 178.136169 -177.868896 -171.223022 121.811928 135.409256 163.693008 0.000000 0.000000 -6.404433 180.000000 179.999985 175.734650 0.000000 -0.000000 0.000000 165.000015 180.000000 170.834518 180.000000 180.000000 172.500977 180.000000 180.000000 174.750671 0.000000 -0.000000 0.000000 0.000000 0.000000 -7.096566 0.000000 0.000000 -7.096563 0.000000 -0.000000 -4.726318 0.000000 -0.000000 0.000000 9.999999 -0.000001 -6.911167 0.000000 0.000000 -6.911163 0.000000 0.000000 -4.602838 0.000000 -0.000000 0.000000 20.000002 -0.000003 -12.010663 0.000000 0.000000 -18.016005 0.000000 -0.000002 -11.998655
-9.531677 96.430412 -11.197822 4.839929 6.323677 0.411485 168.969147 -177.463745 174.048126 0.417549 -1.827849 -2.592660 8.338168 -2.404855 6.581888 9.500384 -1.181143 3.289804 2.820644 -1.055120 2.073108 176.272125 -176.005920 173.728668 179.738235 -179.081161 -177.608627 179.756302 -179.086884 179.629883 178.852234 -179.323746 179.536667 0.000000 -0.346974 -0.407797 180.000000 -179.595200 179.577637 179.198975 -179.697861 179.756577 4.848800 -7.015987 0.678431 7.528098 9.161032 86.113289 10.176724 -4.587129 1.946131 0.857951 -0.073117 -10.336283 48.034801 32.028774 0.215995 180.000000 180.000000 -172.634460 0.000004 0.000003 4.905448 0.000001 0.000000 0.000000 15.000002 -0.000001 17.670673 0.000002 -0.000000 14.457815 180.000000 179.999985 -169.879532 0.000001 0.000000 0.000000 0.000000 -0.000000 14.050920 180.000000 -180.000000 -165.949097 0.000000 0.000000 9.357904 0.000001 0.000000 0.000000 170.000000 180.000000 -164.500046 180.000000 -180.000000 -164.500046 0.000001 -0.000000 10.322968 0.000001 0.000000 0.000000 160.000015 180.000000 -157.236816 0.000000 0.000001 34.144775 180.000000 179.999985 -157.259567 177.142029 -173.669601 173.823288 158.159958 169.749619 95.730919 171.133560 -163.097382 177.308121 178.130951 -177.868057 -171.277496 121.757164 135.417999 163.622223 0.000000 0.000000 -6.411712 0.000003 0.000000 -4.270191 0.000000 -0.000000 0.000003 165.000015 -180.000000 170.831726 0.000002 0.000002 -7.501304 0.000000 -0.000002 -5.250923 0.000000 -0.000000 0.000003 0.000001 0.000000 -7.079209 0.000000 -0.000000 -7.079205 0.000000 -0.000000 -4.714752 0.000000 -0.000000 0.000003 10.000001 -0.000000 -6.936884 0.000000 -0.000000 -6.936885 0.000000 0.000000 -4.619959 0.000000 -0.000000 0.000003 20.000000 -0.000000 -12.036236 180.000000 180.000000 161.945648 180.000000 180.000000 167.975800
-9.541553 96.430344 -11.205513 4.830885 6.346502 0.407944 169.034119 -177.425690 174.065079 0.341360 -1.800551 -2.608171 8.361618 -2.415606 6.583220 9.453215 -1.234324 3.293379 2.843304 -0.992788 2.079029 176.305862 -175.973816 173.717758 179.743240 -179.086945 -177.601257 179.757828 -179.092697 179.637604 178.859680 -179.328339 179.546494 0.000000 -0.369078 -0.423381 180.000000 -179.569412 179.561493 179.215973 -179.678802 179.747269 4.841125 -7.010348 0.643309 7.171182 9.262720 85.829430 10.791535 -3.893003 2.078508 0.430214 0.064284 -9.882318 48.373947 31.852798 0.691811 180.000000 180.000000 -172.483826 180.000000 179.999985 -174.994232 0.000000 0.000001 0.000000 15.000006 0.000001 18.309151 0.000002 0.000001 14.980211 180.000000 -180.000000 -169.513855 0.000000 0.000001 0.000000 180.000000 180.000000 -165.501816 180.000000 -180.000000 -165.501816 180.000000 -180.000000 -170.344223 0.000000 0.000001 0.000000 170.000000 180.000000 -163.963150 180.000000 180.000000 -163.963150 0.000001 -0.000001 10.680546 0.000000 0.000001 0.000000 160.000015 180.000000 -156.758652 0.000000 0.000001 34.862015 180.000000 -180.000000 -156.781891 177.116913 -173.637543 173.838776 158.137009 169.717194 95.729607 171.085327 -163.150055 177.292511 178.123611 -177.866287 -171.334457 121.705856 135.415161 163.559906 180.000000 179.999985 173.586288 0.000000 0.000000 -4.271534 0.000000 -0.000000 0.000000 165.000015 -180.000000 170.802292 0.000000 0.000000 -7.525402 180.000000 180.000000 174.732224 0.000000 -0.000000 0.000000 0.000000 -0.000000 -7.054063 0.000000 0.000000 -7.054060 180.000000 -180.000000 175.302002 0.000000 -0.000000 0.000000 10.000002 -0.000000 -6.955001 180.000000 180.000000 173.044983 180.000000 -180.000000 175.367981 0.000000 -0.000000 0.000000 20.000000 0.000001 -12.048249 0.000000 0.000000 -18.072365 180.000000 180.000000 167.963806
-9.551462 96.430061 -11.212899 4.823747 6.372416 0.403540 168.976715 -177.381836 174.098999 0.382586 -1.783008 -2.636852 8.387810 -2.426915 6.587450 9.411090 -1.293010 3.298360 2.820681 -0.928701 2.087134 176.377838 -175.942749 173.703110 179.747482 -179.093185 -177.593002 179.759094 -179.098953 179.645752 178.865845 -179.333252 179.556854 0.000000 -0.392402 -0.437763 0.000000 -0.457790 -0.453398 179.229279 -179.658691 179.738739 4.835093 -7.004217 0.606666 6.789423 9.364135 85.511688 11.463515 -3.194630 2.223618 179.981873 179.778931 170.643677 48.660480 31.628181 1.146700 180.000000 -179.999985 -172.302933 0.000003 -0.000000 5.126246 0.000000 -0.000000 0.000000 15.000002 0.000001 19.050364 180.000000 -180.000000 -164.413330 0.000001 -0.000002 10.910671 0.000000 -0.000000 0.000000 180.000000 180.000000 -164.939117 0.000001 -0.000001 15.060897 0.000001 -0.000000 10.030560 0.000000 -0.000000 0.000000 170.000000 -180.000000 -163.433380 0.000000 0.000000 16.566620 180.000000 180.000000 -168.966644 0.000000 -0.000000 0.000000 160.000015 180.000000 -156.249954 0.000000 0.000001 35.625084 180.000000 -180.000000 -156.273697 177.089661 -173.603378 173.855545 158.093796 169.682373 95.726227 171.039490 -163.186020 177.276215 178.113739 -177.862869 -171.394302 121.649483 135.396957 163.501434 0.000000 -0.000003 -6.407071 180.000000 179.999985 175.732880 0.000000 -0.000000 0.000000 165.000015 180.000000 170.771423 0.000000 0.000000 -7.550653 180.000000 -180.000000 174.714539 0.000000 -0.000000 0.000000 180.000000 -180.000000 172.968063 0.000000 -0.000000 -7.031933 0.000000 0.000000 -4.683261 0.000000 -0.000000 0.000000 9.999999 -0.000000 -6.965740 0.000000 0.000000 -6.965745 0.000000 -0.000000 -4.639185 0.000000 -0.000000 0.000000 19.999996 -0.000000 -12.056349 0.000000 0.000000 -18.084526 180.000000 -180.000000 167.955704
